<svg width="32" height="32" viewBox="0 0 32 32" fill="none" xmlns="http://www.w3.org/2000/svg">
<g clip-path="url(#clip0_3019_192)">
<path fill-rule="evenodd" clip-rule="evenodd" d="M14.4579 9.79906C13.6368 10.233 12.9649 10.6003 12.9651 10.6152C12.9655 10.6537 14.9359 11.6661 15.0058 11.6637C15.0376 11.6626 15.2684 11.5548 15.5186 11.4242L15.9737 11.1868L16.4706 11.4459L16.9676 11.7051L17.7814 11.3341C19.0077 10.7751 19.135 10.7138 19.1151 10.6932C19.0886 10.6659 18.6487 10.4262 17.4554 9.78883C16.8787 9.48079 16.319 9.17876 16.2115 9.11764C16.1041 9.05653 16.0015 9.00736 15.9836 9.00831C15.9657 9.00927 15.2791 9.3651 14.4579 9.79906ZM10.8564 11.6912L10.0015 12.1391V14.1051C10.0015 15.1864 10.0128 16.0711 10.0265 16.0711C10.0403 16.0711 10.4608 15.8861 10.9611 15.6601L11.8707 15.2491V13.1768L12.3152 13.4225C12.6577 13.6116 13.0005 13.8004 13.3434 13.9888L13.9271 14.3094L14.1868 14.1902C14.3497 14.1154 14.5122 14.0398 14.6745 13.9635C14.7998 13.9043 15.1076 13.7637 15.3583 13.651C15.609 13.5382 15.8411 13.4248 15.8741 13.399C15.9178 13.3647 15.3847 13.0658 13.9022 12.2935C12.7848 11.7113 11.8347 11.2368 11.7908 11.2391C11.747 11.2414 11.3265 11.4448 10.8564 11.6912ZM19.2691 11.817C18.6869 12.0836 18.2102 12.3124 18.2097 12.3255C18.2091 12.3385 18.5265 12.5299 18.9148 12.7508C19.3032 12.9717 19.6209 13.1642 19.6209 13.1787C19.6209 13.1932 19.2773 13.3621 18.8573 13.5542C18.4373 13.7462 17.3756 14.2326 16.4981 14.6351L13.5575 15.9836C12.8178 16.3228 12.1511 16.6286 12.0759 16.6632C10.565 17.357 10.1497 17.5496 10.0927 17.5826C10.0354 17.6159 10.0224 17.8092 10.0122 18.7795L10 19.9367L10.7644 20.3318L11.5288 20.727L12.5888 20.2417C13.1717 19.9748 13.6487 19.7424 13.6487 19.7253C13.6487 19.7082 13.541 19.637 13.4094 19.567C13.2777 19.4969 13.0059 19.3419 12.8053 19.2224C12.6047 19.1028 12.4047 18.9932 12.3608 18.9786C12.3169 18.9641 12.2816 18.9387 12.2823 18.9222C12.2831 18.9057 12.7498 18.6808 13.3195 18.4223C14.426 17.9204 15.2728 17.5336 17.0907 16.6995C17.9036 16.3266 18.7166 15.954 19.5297 15.5816C20.2444 15.2543 21.0752 14.8721 21.3761 14.7322L21.9232 14.4779L21.9354 13.3075L21.9476 12.1372L21.1723 11.7335C20.7458 11.5114 20.3814 11.3303 20.3622 11.331C20.3431 11.3316 19.8512 11.5503 19.2691 11.817ZM21.7155 16.0393C21.6012 16.0959 21.3756 16.2019 21.214 16.2748C21.0524 16.3478 20.7458 16.4881 20.5327 16.5868L20.1452 16.7661L20.1364 17.7936C20.1315 18.3587 20.111 18.8185 20.0908 18.8156C20.0449 18.8086 19.3186 18.4308 18.5886 18.0339C18.0616 17.7474 18.0285 17.7361 17.9047 17.7983C17.8331 17.8343 17.4053 18.0289 16.9539 18.231C16.5026 18.4329 16.1186 18.6114 16.1006 18.6276C16.0825 18.6437 16.9909 19.1432 18.1192 19.7376L20.1706 20.8183L21.0469 20.3584C21.5288 20.1055 21.9386 19.8748 21.9575 19.8458C22 19.7806 21.9964 15.9274 21.9538 15.9326C21.937 15.9347 21.8297 15.9827 21.7155 16.0393ZM16.8628 20.5619C16.7108 20.6282 16.5588 20.6946 16.4069 20.7611C15.9481 20.9625 16.038 20.9692 15.4922 20.6935C15.1287 20.5099 14.972 20.4533 14.904 20.4808C14.8529 20.5014 14.4139 20.7018 13.9282 20.9261C13.4425 21.1504 13.0283 21.3339 13.0077 21.3339C12.8039 21.3339 13.1427 21.5393 14.4499 22.2083L15.983 22.9928L16.628 22.6697C16.9828 22.492 17.6984 22.1362 18.2182 21.879C18.738 21.6217 19.1569 21.4045 19.1491 21.3964C19.1412 21.3882 18.7056 21.1613 18.1811 20.8921L17.2275 20.4028L16.8628 20.5619Z" fill="white"/>
</g>
<rect x="0.5" y="0.5" width="31" height="31" rx="15.5" stroke="white"/>
<defs>
<clipPath id="clip0_3019_192">
<rect width="12" height="14" fill="white" transform="translate(10 9)"/>
</clipPath>
</defs>
</svg>
